<svg width="14" height="14" viewBox="0 0 14 14" fill="none" xmlns="http://www.w3.org/2000/svg">
<path d="M3.31767 9.69854H1.94998L1.29998 10.6106L1.30086 12.8148M3.31767 8.01375H0.142822M3.31767 6.34163H0.142822M3.31767 4.64417H1.94998L1.29998 3.85163L1.26182 1.51528M10.7083 9.69854H12L12.8 10.6106V12.8148M10.7083 8.01375H13.8571M10.7083 6.34163H13.8571M10.7083 4.64417H12L12.8 3.85163L12.7902 1.51528M4.14998 6.34163V10.9855L6.24998 12.2355V6.34163H4.14998ZM4.14998 4.78555V3.85163L4.69998 2.08555L7.06773 1.18555L9.39998 2.08555L9.89998 3.85163V4.78555H4.14998ZM7.79998 6.34163V12.2355L9.89998 10.9855V6.34163H7.79998Z" stroke="white"/>
</svg>
