<svg width="16" height="16" viewBox="0 0 16 16" fill="none" xmlns="http://www.w3.org/2000/svg">
<path d="M4.31767 10.6985H2.94998L2.29998 11.6106L2.30086 13.8148M4.31767 9.01375H1.14282M4.31767 7.34163H1.14282M4.31767 5.64417H2.94998L2.29998 4.85163L2.26182 2.51528M11.7083 10.6985H13L13.8 11.6106V13.8148M11.7083 9.01375H14.8571M11.7083 7.34163H14.8571M11.7083 5.64417H13L13.8 4.85163L13.7902 2.51528M5.14998 7.34163V11.9855L7.24998 13.2355V7.34163H5.14998ZM5.14998 5.78555V4.85163L5.69998 3.08555L8.06773 2.18555L10.4 3.08555L10.9 4.85163V5.78555H5.14998ZM8.79998 7.34163V13.2355L10.9 11.9855V7.34163H8.79998Z" stroke="white"/>
</svg>
